<svg width="110" height="38" viewBox="0 0 110 38" fill="none" xmlns="http://www.w3.org/2000/svg">
<rect width="110" height="38" rx="5" fill="#54B854"/>
<g clip-path="url(#clip0_148_317)">
<path d="M96 25C96 25.2761 95.7761 25.5 95.5 25.5C95.2239 25.5 95 25.2761 95 25C95 24.7239 95.2239 24.5 95.5 24.5C95.7761 24.5 96 24.7239 96 25ZM89.5 25C89.5 25.2761 89.2761 25.5 89 25.5C88.7239 25.5 88.5 25.2761 88.5 25C88.5 24.7239 88.7239 24.5 89 24.5C89.2761 24.5 89.5 24.7239 89.5 25Z" fill="white" stroke="white" stroke-linecap="round" stroke-linejoin="round"/>
<path d="M96.4865 22.499H89.0972C88.2891 22.499 87.8851 22.499 87.6055 22.2625C87.3259 22.026 87.2589 21.6276 87.1248 20.8307L86.1725 15.1673C86.0384 14.3705 85.9714 13.972 85.6918 13.7355C85.4122 13.499 85.0082 13.499 84.2001 13.499H84M86.1622 15.0071L95.52 15.0015C96.6655 15.0008 97.2382 15.0005 97.5386 15.3726C97.839 15.7446 97.718 16.3044 97.476 17.4241L97.2058 18.674C97.0424 19.4299 96.9607 19.8079 96.6859 20.0297C96.4111 20.2515 96.0244 20.2515 95.251 20.2515H87.0274" stroke="white" stroke-linecap="round" stroke-linejoin="round"/>
</g>
<path d="M11.386 25.31H10.266V21.88H11.456C12.52 19.9573 13.052 17.064 13.052 13.2H19.072V21.88H20.304V25.31H19.184V23H11.386V25.31ZM14.256 14.32C14.0507 17.8107 13.556 20.3307 12.772 21.88H17.896V14.32H14.256ZM22.1653 22.23C21.456 21.5953 21.1013 20.732 21.1013 19.64C21.1013 18.548 21.456 17.6893 22.1653 17.064C22.8747 16.4293 23.7147 16.112 24.6853 16.112C25.6653 16.112 26.5053 16.4293 27.2053 17.064C27.9147 17.6893 28.2693 18.548 28.2693 19.64C28.2693 20.732 27.9147 21.5953 27.2053 22.23C26.5053 22.8553 25.6653 23.168 24.6853 23.168C23.7147 23.168 22.8747 22.8553 22.1653 22.23ZM26.4493 21.446C26.916 20.998 27.1493 20.396 27.1493 19.64C27.1493 18.884 26.916 18.2867 26.4493 17.848C25.9827 17.4 25.3947 17.176 24.6853 17.176C23.976 17.176 23.388 17.4 22.9213 17.848C22.4547 18.2867 22.2213 18.884 22.2213 19.64C22.2213 20.396 22.4547 20.998 22.9213 21.446C23.388 21.8847 23.976 22.104 24.6853 22.104C25.3947 22.104 25.9827 21.8847 26.4493 21.446ZM36.4418 19.836C36.4418 20.872 36.1245 21.6887 35.4898 22.286C34.8645 22.874 34.0385 23.168 33.0118 23.168C31.9665 23.168 31.1218 22.8227 30.4778 22.132C29.8432 21.4413 29.5258 20.4753 29.5258 19.234C29.5258 18.1513 29.7125 17.218 30.0858 16.434C30.4592 15.65 30.9632 15.062 31.5978 14.67C32.0272 14.4087 32.4705 14.2033 32.9278 14.054C33.3945 13.8953 33.7772 13.7973 34.0758 13.76C34.3838 13.7227 34.7012 13.648 35.0278 13.536C35.3545 13.4147 35.6252 13.2467 35.8398 13.032V14.208C35.5785 14.3947 35.2565 14.5347 34.8738 14.628C34.4912 14.712 34.0665 14.8147 33.5998 14.936C33.1332 15.0573 32.6852 15.244 32.2558 15.496C31.8358 15.748 31.5092 16.0653 31.2758 16.448C31.0425 16.8307 30.8372 17.288 30.6598 17.82C30.9025 17.4467 31.2478 17.1433 31.6958 16.91C32.1438 16.6767 32.6245 16.56 33.1378 16.56C34.0432 16.56 34.8178 16.8633 35.4618 17.47C36.1152 18.0767 36.4418 18.8653 36.4418 19.836ZM30.6458 19.864C30.6458 20.508 30.8605 21.0447 31.2898 21.474C31.7192 21.894 32.2838 22.104 32.9838 22.104C33.7025 22.104 34.2718 21.894 34.6918 21.474C35.1118 21.054 35.3218 20.5173 35.3218 19.864C35.3218 19.2107 35.1118 18.674 34.6918 18.254C34.2718 17.834 33.7025 17.624 32.9838 17.624C32.3118 17.624 31.7518 17.8527 31.3038 18.31C30.8652 18.758 30.6458 19.276 30.6458 19.864ZM43.5253 21.6C43.5253 21.9453 43.698 22.118 44.0433 22.118C44.1926 22.118 44.3653 22.0853 44.5613 22.02V22.93C44.2813 23.0327 44.0013 23.084 43.7213 23.084C43.0773 23.084 42.6666 22.8133 42.4893 22.272C41.7706 22.8693 40.898 23.168 39.8713 23.168C39.218 23.168 38.658 22.9953 38.1913 22.65C37.734 22.2953 37.5053 21.7867 37.5053 21.124C37.5053 20.3307 37.7993 19.7567 38.3873 19.402C38.9846 19.038 39.7033 18.856 40.5433 18.856C41.1593 18.856 41.78 18.926 42.4053 19.066V18.828C42.4053 18.3147 42.2373 17.9087 41.9013 17.61C41.5653 17.302 41.094 17.148 40.4873 17.148C39.638 17.148 38.8213 17.316 38.0373 17.652V16.56C38.9146 16.2613 39.7686 16.112 40.5993 16.112C41.514 16.112 42.228 16.3593 42.7413 16.854C43.264 17.3393 43.5253 18.044 43.5253 18.968V21.6ZM38.6533 21.068C38.6533 21.4413 38.7933 21.726 39.0733 21.922C39.3626 22.1087 39.708 22.202 40.1093 22.202C41.0333 22.202 41.7986 21.8753 42.4053 21.222V19.99C41.7706 19.8593 41.2013 19.794 40.6973 19.794C40.128 19.794 39.6426 19.8967 39.2413 20.102C38.8493 20.298 38.6533 20.62 38.6533 21.068ZM49.5566 23H45.7626V16.28H49.4446C50.0512 16.28 50.5459 16.4387 50.9286 16.756C51.3206 17.0733 51.5166 17.5213 51.5166 18.1C51.5166 18.436 51.4326 18.7393 51.2646 19.01C51.0966 19.2807 50.8819 19.472 50.6206 19.584C50.9286 19.6867 51.1899 19.8733 51.4046 20.144C51.6192 20.4147 51.7266 20.746 51.7266 21.138C51.7266 21.7073 51.5399 22.16 51.1666 22.496C50.8026 22.832 50.2659 23 49.5566 23ZM46.8826 20.088V22.02H49.4026C50.2052 22.02 50.6066 21.7027 50.6066 21.068C50.6066 20.4147 50.2192 20.088 49.4446 20.088H46.8826ZM46.8826 17.26V19.122H49.3326C50.0326 19.122 50.3826 18.8187 50.3826 18.212C50.3826 17.8667 50.2799 17.624 50.0746 17.484C49.8692 17.3347 49.6219 17.26 49.3326 17.26H46.8826ZM54.3845 23H53.4325V16.28H54.5525V21.194L58.6685 16.28H59.6205V23H58.5005V18.086L54.3845 23ZM64.4903 23H63.3703V17.316H60.8923V16.28H66.9543V17.316H64.4903V23ZM71.4175 23H68.2255V16.28H69.3455V18.632H71.4175C72.2201 18.632 72.8548 18.8373 73.3215 19.248C73.7881 19.6587 74.0215 20.1813 74.0215 20.816C74.0215 21.4507 73.7881 21.9733 73.3215 22.384C72.8548 22.7947 72.2201 23 71.4175 23ZM69.3455 19.64V21.992H71.2775C71.7815 21.992 72.1735 21.894 72.4535 21.698C72.7428 21.502 72.8875 21.208 72.8875 20.816C72.8875 20.424 72.7428 20.13 72.4535 19.934C72.1735 19.738 71.7815 19.64 71.2775 19.64H69.3455Z" fill="white"/>
<defs>
<clipPath id="clip0_148_317">
<rect width="18" height="18" fill="white" transform="translate(82 10)"/>
</clipPath>
</defs>
</svg>
