<svg width="54" height="54" viewBox="0 0 54 54" fill="none" xmlns="http://www.w3.org/2000/svg">
<path d="M26.5023 0.262518C26.3479 0.407225 25.7735 0.969746 25.2279 1.51189L24.2334 2.4963L25.5202 3.77012L26.807 5.04395L28.0939 3.77012L29.3827 2.4963L28.1165 1.24693C27.4206 0.562122 26.8379 -0.000398953 26.8173 -0.000398953C26.7988 -0.000398953 26.6567 0.117812 26.5023 0.262518Z" fill="#338933"/>
<path d="M20.5973 5.9636C16.4177 9.95628 16.1171 10.2824 15.7712 11.2097C15.5138 11.9027 15.4171 13.1113 15.555 13.9102C15.658 14.5054 16.0718 15.4266 16.4692 15.9463C16.6174 16.1399 16.8892 16.4497 16.9057 16.4436C16.9201 16.4375 17.0621 16.3111 17.8322 15.6202L18.174 15.3125L17.9989 15.0597C17.6016 14.4891 17.4245 14.1365 17.3133 13.7003C17.126 12.9686 17.2124 12.241 17.5666 11.5542C17.7622 11.171 17.9784 10.9244 18.9769 9.94609C19.8437 9.09415 22.335 6.71771 22.368 6.70956C22.3803 6.70752 23.1215 7.42901 24.0151 8.31355L25.6396 9.92163L23.6959 11.8599C20.4346 15.1127 9.11064 26.2307 9.06123 26.2307C9.04682 26.2307 6.78202 23.9561 6.19935 23.3549L5.90287 23.0492L6.02434 22.9269C6.18494 22.7638 7.70647 21.3066 8.21502 20.8276C9.84979 19.2868 10.5272 18.763 11.1428 18.5592C11.3816 18.4797 11.7008 18.441 12.1166 18.441C12.8743 18.4389 13.2593 18.5653 14.0211 19.0646L14.3814 19.3011L14.9744 18.71C15.4418 18.2453 15.5674 18.1088 15.5612 18.0741C15.5447 17.9661 14.7376 17.4036 14.2641 17.1733C13.8626 16.9776 13.3458 16.8207 12.7137 16.7004C12.3493 16.6311 11.8675 16.623 11.5402 16.68C10.7228 16.8268 9.8745 17.1427 9.31859 17.5095C9.10035 17.6543 8.98505 17.7562 7.59735 19.0341C5.97699 20.526 3.68954 22.6619 3.45071 22.9065L3.34776 23.0104L5.08754 24.7367C6.68525 26.3265 7.62411 27.2783 7.72294 27.4168L7.76412 27.4719L7.59323 27.6614C7.30086 27.9834 6.74084 28.548 4.99901 30.2763L3.31482 31.9476L4.94547 33.629C5.8411 34.5543 7.12792 35.8567 7.80118 36.5252C9.10653 37.8194 9.11476 37.8276 9.58419 38.0884C10.0845 38.3656 10.7145 38.5735 11.3549 38.6734C11.6472 38.7182 12.2505 38.7345 12.549 38.706C13.4755 38.6163 14.2909 38.3371 15.0197 37.8561C15.1782 37.7521 15.588 37.4138 15.6024 37.3771C15.6127 37.3527 15.1659 36.8533 14.6697 36.3357L14.4412 36.0952L14.1632 36.299C13.8379 36.5395 13.5455 36.6882 13.1543 36.8167C12.7179 36.9614 12.4831 37.0001 12.0961 37.0021C11.7193 37.0021 11.4557 36.9593 11.0831 36.837C10.8092 36.7494 10.4469 36.5762 10.2842 36.4579C9.93009 36.1971 8.95211 35.2371 7.11762 33.3437L5.78345 31.97L7.40587 30.364C8.29738 29.4815 9.03858 28.7579 9.05094 28.7579C9.07564 28.7579 21.6144 41.1782 23.1442 42.719C23.7289 43.3081 24.4989 44.0907 24.8572 44.4616L25.5078 45.1342L23.908 46.7178C23.0289 47.5901 22.3041 48.3035 22.2959 48.3035C22.2856 48.3035 19.7799 45.6743 19.1993 45.0527C18.1245 43.9012 17.8095 43.4385 17.7169 42.8719C17.6798 42.6477 17.6757 41.7204 17.7086 41.4452C17.7684 40.9683 17.9392 40.6116 18.3716 40.0715C18.4478 39.9778 18.5096 39.8942 18.5096 39.8861C18.5096 39.8657 17.301 38.6836 17.2804 38.6836C17.2598 38.6836 16.986 38.9934 16.8274 39.1931C16.4486 39.6761 16.1336 40.3752 15.9771 41.0804C15.9009 41.431 15.8721 41.6694 15.8597 42.0689C15.8412 42.6966 15.8968 43.09 16.0821 43.6444C16.3971 44.5839 16.7945 45.0792 19.4772 47.8857C21.4147 49.9136 22.2279 50.7492 22.2609 50.7492C22.3041 50.7492 22.9403 50.1358 24.7954 48.3055L26.7678 46.3591L29.0182 48.5868L31.2686 50.8145L32.0283 50.1052C33.6405 48.5949 36.2738 46.086 36.7638 45.5908C37.2744 45.0731 37.6121 44.5554 37.8901 43.8604C38.1104 43.306 38.1927 42.9188 38.2071 42.3501C38.2236 41.7652 38.1721 41.3392 38.0177 40.7828C37.7933 39.9737 37.4597 39.3684 36.9759 38.8833C36.8441 38.7508 36.7288 38.6428 36.7185 38.6428C36.7082 38.6428 36.4344 38.9057 36.1091 39.2277L35.5203 39.8147L35.7117 40.0756C36.2368 40.7828 36.4632 41.4126 36.4632 42.1688C36.4632 42.6212 36.3871 42.9922 36.2162 43.3794C36.0988 43.6403 35.9938 43.8074 35.8126 44.0132C35.5347 44.3312 33.9061 45.9291 32.5822 47.1805L31.3077 48.3891L30.1012 47.1886C28.7073 45.8027 28.1247 45.1933 28.1247 45.122C28.1247 45.069 33.4263 39.8106 41.2873 32.0719L44.5774 28.8313L46.1936 30.4312C47.081 31.3097 47.8058 32.0393 47.8037 32.0495C47.7975 32.0699 46.1998 33.5699 45.1415 34.5482C43.4306 36.1298 42.9097 36.4926 42.1746 36.6169C42.0285 36.6434 41.8493 36.6516 41.5487 36.6536C41.1905 36.6536 41.0958 36.6475 40.9166 36.6088C40.4822 36.515 40.1425 36.356 39.6237 36.0014C39.4363 35.873 39.2757 35.7691 39.2654 35.7691C39.2366 35.7691 38.4665 36.5578 38.2915 36.7657C38.203 36.8717 38.1309 36.9736 38.1309 36.994C38.1309 37.0775 38.6519 37.4892 39.0595 37.7277C39.6134 38.0518 40.2434 38.2719 40.9105 38.3717C41.242 38.4227 41.9626 38.4207 42.2899 38.3717C42.8788 38.28 43.375 38.1231 43.865 37.8704C44.4765 37.5585 44.635 37.4179 48.4728 33.8125C49.4467 32.8994 50.2641 32.1331 50.2929 32.1127L50.3444 32.0739L48.0858 29.8381L45.8271 27.6023L46.4407 27.0031C46.7804 26.6729 47.5299 25.9433 48.1064 25.3828C49.2408 24.2781 50.3197 23.2041 50.3197 23.1755C50.3197 23.0818 45.7983 18.3778 45.0839 17.7276C44.3859 17.0917 43.8177 16.7453 43.0888 16.5109C42.5926 16.3519 42.2549 16.305 41.6084 16.305C40.9352 16.305 40.511 16.3621 40.0828 16.5068C39.4384 16.7289 38.8413 17.051 38.3615 17.4341C38.2215 17.5483 38.0877 17.6543 38.063 17.6726C38.0218 17.7052 38.0301 17.7154 38.4624 18.1719C38.7054 18.4267 38.973 18.71 39.0575 18.7976L39.2139 18.9607L39.5722 18.7202C40.1096 18.3594 40.5522 18.1638 41.0752 18.0558C41.3799 17.9926 41.7876 17.9926 42.0799 18.0537C42.4073 18.1251 42.7676 18.2494 43.0641 18.3941C43.3276 18.5245 43.3441 18.5347 43.6715 18.8404C43.8568 19.0116 44.283 19.4274 44.6186 19.7617C45.3454 20.4913 47.8902 23.1103 47.8902 23.1307C47.8902 23.1388 47.2951 23.7319 46.5684 24.4493C45.3557 25.6437 44.8821 26.0961 44.6886 26.2429L44.6165 26.2959L44.5177 26.2184C44.1738 25.9392 30.3668 12.2145 28.3738 10.1662L28.1802 9.96851L28.2338 9.89717C28.3614 9.73412 31.3716 6.81758 31.4148 6.81758C31.4313 6.81758 33.8958 9.40599 34.4373 9.99093C35.2608 10.8836 35.6232 11.3483 35.8291 11.7722C36.0082 12.1452 36.0617 12.4713 36.0453 13.0909C36.0267 13.7941 35.897 14.1609 35.4214 14.86L35.1826 15.2106L35.7879 15.8098C36.1194 16.1379 36.3953 16.4049 36.4035 16.4028C36.4426 16.3845 36.7577 16.0197 36.8647 15.8668C37.1138 15.5142 37.4021 14.9599 37.575 14.5013C37.7336 14.0875 37.7974 13.7227 37.8159 13.1561C37.8365 12.4876 37.7686 11.9638 37.5956 11.4482C37.33 10.6574 36.9738 10.1621 35.6417 8.72322C34.6617 7.66747 31.4971 4.36368 31.4477 4.34738C31.4148 4.33718 30.4739 5.24007 28.6332 7.05196L26.9284 8.73137L24.8448 6.67287C23.698 5.54171 22.6768 4.53488 22.5738 4.43501L22.3844 4.25566L20.5973 5.9636ZM40.616 24.8386L43.3585 27.5697L38.903 31.9659C33.6652 37.1346 31.7607 39.0056 29.7306 40.9765C27.4679 43.1735 26.7781 43.8257 26.7349 43.8156C26.7205 43.8115 25.7199 42.823 24.5092 41.6185C23.2986 40.4139 19.609 36.7453 16.3086 33.468L10.3089 27.5106L11.4599 26.3754C16.0533 21.8426 24.9992 13.0603 26.3334 11.7722L26.8996 11.226L32.3866 16.6658C35.405 19.6598 39.1069 23.3365 40.616 24.8386Z" fill="#338933"/>
<path d="M26.5373 22.9328C25.9237 23.4953 21.8862 27.4635 21.8862 27.5043C21.8862 27.5165 23.0022 28.6293 24.3672 29.9806L26.8482 32.4365L29.3395 29.9704L31.8308 27.5043L30.4039 26.0919C28.3203 24.0252 26.91 22.6637 26.8503 22.6637C26.84 22.6637 26.7 22.786 26.5373 22.9328Z" fill="#338933"/>
<path d="M51.5818 26.0455C51.345 26.2697 50.8859 26.718 50.5564 27.0441L49.9594 27.6372L50.995 28.6624L52.0306 29.6855L52.7656 28.9518C53.4718 28.2466 53.9104 27.7881 53.9783 27.6862C54.0072 27.6434 54.0072 27.6332 53.9783 27.5904C53.8239 27.358 52.1068 25.6399 52.0286 25.6399C52.0183 25.6399 51.8165 25.8233 51.5818 26.0455Z" fill="#338933"/>
<path d="M1.03357 26.8274L0 27.8506L1.02945 28.8696L2.05891 29.8887L3.09454 28.8635L4.12811 27.8404L3.09866 26.8213L2.0692 25.8022L1.03357 26.8274Z" fill="#338933"/>
<path d="M26.5476 50.1724C26.4467 50.258 25.9917 50.6962 25.5346 51.1446L24.7048 51.9619L25.7363 52.9809L26.7658 54L27.7953 52.9809L28.8268 51.9619L27.997 51.1446C27.1385 50.3008 26.8276 50.0155 26.7658 50.0155C26.7452 50.0155 26.6464 50.0868 26.5476 50.1724Z" fill="#338933"/>
</svg>
