<svg width="60" height="60" viewBox="0 0 60 60" fill="none" xmlns="http://www.w3.org/2000/svg">
<path d="M55.8825 35.6506L50.8938 30.689L55.9101 25.757L50.1256 19.7968C48.0372 17.647 44.5619 17.5651 42.3769 19.6171L42.2412 19.7445L43.5752 21.139L43.7109 21.0116C45.1254 19.6831 47.3748 19.7377 48.7226 21.1276L53.1846 25.7275L49.5207 29.3286L31.2403 11.1408L34.8444 7.5965L39.0902 12.0394C40.4219 13.4316 40.392 15.586 39.0189 16.9418L40.392 18.2999C42.5103 16.2025 42.5586 12.8743 40.5001 10.7199L34.8881 4.84615L29.8718 9.78041L24.8854 4.81885L18.8594 10.538C16.6859 12.6036 16.6031 16.0432 18.6777 18.2044L18.8065 18.3386L20.2141 17.0169L20.0853 16.8827C18.7421 15.4836 18.795 13.261 20.2026 11.9256L24.8532 7.51233L28.4964 11.1363L10.1079 29.2172L6.52449 25.6524L11.0164 21.4529C12.4263 20.1335 14.6044 20.1653 15.9729 21.5212L17.346 20.1631C15.2254 18.0679 11.8605 18.0201 9.68239 20.0561L3.74379 25.6069L8.73249 30.5707L3.71619 35.5027L9.37189 41.331C10.4851 42.4776 11.9778 43.0554 13.4751 43.0554C14.8827 43.0554 16.2926 42.5435 17.3874 41.5153L16.0511 40.123C14.563 41.5198 12.1963 41.4675 10.7749 40.0025L6.44169 35.5346L10.1056 31.9334L28.386 50.1212L24.7819 53.6655L20.5361 49.2227C19.2044 47.8281 19.2343 45.6761 20.6051 44.3202L19.232 42.9621C17.1137 45.0573 17.0654 48.3878 19.1239 50.5421L24.7382 56.4159L29.7545 51.4839L34.7409 56.4455L40.7669 50.7241C42.9427 48.6608 43.0232 45.2211 40.9486 43.0577L40.8198 42.9234L39.4076 44.2429L39.5364 44.3771C40.8796 45.7762 40.8267 48.001 39.4191 49.3341L34.7685 53.7497L31.1276 50.1258L49.5161 32.0426L53.0995 35.6074L48.6076 39.8068C47.1977 41.124 45.0219 41.0922 43.6511 39.7386L42.278 41.0967C43.3567 42.1636 44.7597 42.7005 46.165 42.7005C47.5174 42.7005 48.8721 42.2023 49.9416 41.2036L55.8825 35.6506ZM29.7591 48.7608L11.4787 30.573L29.8672 12.4921L48.1499 30.6799L29.7591 48.7608Z" fill="#FA9B29"/>
<path d="M30.0523 23.5095L22.2856 31.1914L30.0523 38.8733L37.819 31.1914L30.0523 23.5095Z" fill="#FA9B29"/>
<path d="M29.7561 -0.000139698L26.8872 2.8374L29.7561 5.67494L32.6249 2.8374L29.7561 -0.000139698Z" fill="#FA9B29"/>
<path d="M29.7118 55.4863L27.4301 57.7432L29.7118 60L31.9935 57.7432L29.7118 55.4863Z" fill="#FA9B29"/>
<path d="M57.7183 28.4697L55.4365 30.7266L57.7183 32.9834L60 30.7266L57.7183 28.4697Z" fill="#FA9B29"/>
<path d="M2.28174 28.6977L0 30.9546L2.28174 33.2114L4.56349 30.9546L2.28174 28.6977Z" fill="#FA9B29"/>
</svg>
