<svg width="18" height="18" viewBox="0 0 18 18" fill="none" xmlns="http://www.w3.org/2000/svg">
<g clip-path="url(#clip0_190_179)">
<path d="M14 14.5V13.7C14 13.0489 14 12.7234 13.9249 12.4571C13.736 11.7874 13.2126 11.264 12.5429 11.0751C12.2766 11 11.9511 11 11.3 11H6.7C6.04891 11 5.72337 11 5.45712 11.0751C4.78739 11.264 4.26397 11.7874 4.07509 12.4571C4 12.7234 4 13.0489 4 13.7V14.5" stroke="black" stroke-linecap="round" stroke-linejoin="round"/>
<path d="M11.75 5.75C11.75 7.26878 10.5188 8.5 9 8.5C7.48122 8.5 6.25 7.26878 6.25 5.75C6.25 4.23122 7.48122 3 9 3C10.5188 3 11.75 4.23122 11.75 5.75Z" stroke="black" stroke-linecap="round" stroke-linejoin="round"/>
</g>
<defs>
<clipPath id="clip0_190_179">
<rect width="18" height="18" fill="white"/>
</clipPath>
</defs>
</svg>
