<svg width="821" height="187" viewBox="0 0 821 187" fill="none" xmlns="http://www.w3.org/2000/svg">
<path d="M594.111 7.48047L586.474 14.9608L594.111 22.4411L601.749 29.9214L609.386 22.4411L617.023 14.9608L609.386 7.48047L601.749 0.000159621L594.111 7.48047Z" fill="#273F27"/>
<path d="M211.614 80.2884C185.839 119.311 161.4 155.341 149.435 171.86L140.716 183.891H148.798H156.881L163.691 172.795C167.446 166.748 172.919 158.084 175.783 153.658L181.065 145.554L228.543 145.367L276.085 145.242L284.613 159.393C289.387 167.247 294.478 175.849 296.005 178.592L298.869 183.579L310.453 183.766L322.036 183.891L315.799 175.351C296.196 148.359 282.195 126.978 255.465 83.0311C244.009 64.268 234.399 48.6217 233.953 48.1854C233.444 47.6867 227.843 55.6657 211.614 80.2884ZM250.946 104.537L270.421 136.515H228.671C195.385 136.515 187.048 136.328 187.557 135.705C187.875 135.331 197.74 120.682 209.387 103.29C221.034 85.8986 230.771 71.873 231.026 72.1224C231.28 72.3717 240.254 87.0206 250.946 104.537Z" fill="#273F27"/>
<path d="M710.26 81.5351C677.929 130.344 655.4 163.382 642.353 180.899L640.125 183.891H648.335H656.482L658.327 180.587C659.346 178.841 664.755 170.114 670.356 161.263L680.603 145.242H728.017H775.495L783.578 158.52C787.969 165.751 793.124 174.478 795.033 177.782L798.406 183.891H809.735C815.908 183.891 821 183.766 821 183.579C821 183.392 819.218 180.774 816.99 177.782C798.979 153.346 781.414 126.542 755.193 83.5298C743.355 64.1434 733.49 48.1231 733.236 47.8737C733.045 47.6244 722.671 62.772 710.26 81.5351ZM749.974 104.038C760.73 121.617 769.385 136.141 769.258 136.266C769.13 136.391 750.483 136.453 727.826 136.391L686.649 136.204L699.823 116.568C707.078 105.784 716.816 91.1972 721.525 84.2155C726.235 77.2339 730.117 71.6237 730.244 71.7484C730.372 71.873 739.282 86.3973 749.974 104.038Z" fill="#273F27"/>
<path d="M54.7333 52.7985C44.2958 53.9205 31.5035 57.4113 23.5481 61.4632C13.8106 66.3877 5.98248 73.8057 3.05488 81.0366C1.08194 85.8365 1.08194 94.8129 3.05488 99.7374C7.12806 109.96 19.0294 118.189 35.7676 122.428C45.4414 124.859 54.5424 125.981 71.2806 126.542C93.874 127.415 103.102 129.035 113.285 134.022C123.532 139.071 129.387 149.294 126.65 157.46C122.45 170.052 102.211 178.904 77.5177 178.904C49.5782 178.904 24.3754 169.429 5.91884 151.913L0 146.302V157.336V168.307L2.99124 170.239C14.5107 177.408 35.7039 183.766 55.9426 186.073C66.6346 187.319 86.6823 187.319 95.2742 186.01C107.43 184.265 118.759 180.4 126.905 175.164C144.343 164.006 149.307 146.552 139.315 131.84C132.442 121.804 119.713 115.321 100.238 111.831C96.547 111.207 88.0188 110.646 76.0539 110.335C55.7516 109.711 48.8781 108.901 39.7771 105.909C29.8488 102.667 23.4844 98.1167 20.3022 92.1324C18.3929 88.5793 18.2657 82.408 19.984 78.9172C28.3213 62.5852 68.4167 55.2296 96.6107 64.954C109.276 69.2552 119.268 75.6134 130.66 86.5222L137.47 93.1298V82.1587V71.1876L133.842 68.8811C121.304 61.0892 104.566 55.5413 87.0005 53.2972C80.127 52.4245 61.034 52.1128 54.7333 52.7985Z" fill="#273F27"/>
<path d="M340.11 63.0213C341.574 87.644 341.574 154.468 340.11 176.847L339.665 183.891H350.039H360.413L359.967 177.47C359.331 168.369 358.312 120.246 358.694 119.56C359.14 118.812 419.919 118.937 427.747 119.685C440.158 120.931 447.668 123.612 452.059 128.349L454.414 130.905V114.635V98.3658L451.614 101.42C448.05 105.285 443.404 107.404 435.321 108.901C430.038 109.836 424.756 109.96 393.953 110.023H358.631L358.44 87.083L358.312 64.2057H392.171C426.665 64.2057 439.012 64.7044 448.686 66.4498C455.623 67.6965 462.878 70.4393 467.397 73.5561C469.37 74.9275 471.152 76.0495 471.279 76.0495C471.47 76.0495 471.598 71.4367 471.598 65.7641V55.4787H405.663H339.665L340.11 63.0213Z" fill="#273F27"/>
<path d="M489.673 62.4603C491.836 99.1762 491.836 157.086 489.673 179.652L489.291 183.891H500.237H511.184L510.802 180.649C508.065 157.46 508.065 81.9091 510.802 58.7202L511.184 55.4787H500.237H489.291L489.673 62.4603Z" fill="#273F27"/>
<path d="M550.325 77.7326C562.544 90.0128 576.227 103.727 580.619 108.215L588.701 116.381V135.331C588.701 153.034 587.938 174.104 587.047 180.899L586.665 183.891H597.612H608.558L608.176 179.34C607.285 169.803 606.522 153.533 606.14 135.892L605.758 117.503L614.477 108.464C619.314 103.477 633.125 89.5141 645.217 77.4209L667.11 55.4787H659.218L651.39 55.541L638.216 70.003C621.86 87.9557 603.53 107.467 602.894 107.592C602.258 107.716 568.59 72.5587 555.48 58.0968L553.061 55.4787H540.587H528.113L550.325 77.7326Z" fill="#273F27"/>
</svg>
