<svg width="40" height="23" viewBox="0 0 40 23" fill="none" xmlns="http://www.w3.org/2000/svg">
<path fill-rule="evenodd" clip-rule="evenodd" d="M39.0821 1.50894C39.3602 0.639137 39.0821 0 37.7588 0H33.3828C32.2701 0 31.7571 0.55212 31.4789 1.16095C31.4789 1.16095 29.2536 6.24924 26.1011 9.55442C25.0811 10.5112 24.6175 10.8156 24.0611 10.8156C23.783 10.8156 23.3804 10.5112 23.3804 9.64144V1.50895C23.3804 0.465178 23.0575 0 22.1301 0H15.2536C14.5582 0 14.1401 0.484436 14.1401 0.943553C14.1401 1.93302 15.7162 2.1612 15.8787 4.94457V10.9896C15.8787 12.315 15.6235 12.5553 15.0672 12.5553C13.5837 12.5553 9.97512 7.44424 7.83488 1.59589C7.41545 0.459173 6.99476 0 5.87638 0H1.50036C0.250071 0 0 0.55212 0 1.16095C0 2.24822 1.48357 7.64093 6.90773 14.7732C10.5238 19.6439 15.6186 22.2842 20.2547 22.2842C23.0363 22.2842 23.3804 21.6978 23.3804 20.6877V17.0064C23.3804 15.8335 23.644 15.5995 24.5248 15.5995C25.1738 15.5995 26.2865 15.9039 28.8827 18.2523C31.8498 21.0356 32.339 22.2842 34.0079 22.2842H38.3839C39.6342 22.2842 40.2594 21.6978 39.8987 20.5405C39.5041 19.3871 38.0875 17.7137 36.2078 15.7299C35.1878 14.5992 33.6579 13.3816 33.1942 12.7726C32.5452 11.9899 32.7307 11.6419 33.1942 10.9461C33.1942 10.9461 38.5258 3.90081 39.0821 1.50894Z" fill="#0F890E"/>
</svg>
