<svg width="45" height="45" viewBox="0 0 45 45" fill="none" xmlns="http://www.w3.org/2000/svg">
<path d="M0 45L3.22578 33.0058C0.624269 28.3334 -0.202257 22.8812 0.897871 17.6495C1.998 12.4179 4.95099 7.75778 9.21495 4.52434C13.4789 1.2909 18.7679 -0.298978 24.1112 0.0464506C29.4546 0.391879 34.494 2.64944 38.3046 6.40488C42.1153 10.1603 44.4416 15.1617 44.8567 20.4913C45.2719 25.8209 43.7479 31.1212 40.5646 35.4196C37.3812 39.718 32.7519 42.7261 27.5263 43.892C22.3006 45.0579 16.8291 44.3034 12.1157 41.7669L0 45ZM12.6999 37.2786L13.4492 37.7223C16.8632 39.7425 20.8507 40.5785 24.7903 40.1C28.7299 39.6215 32.4003 37.8554 35.2296 35.0769C38.0588 32.2985 39.8879 28.6637 40.4319 24.739C40.9759 20.8143 40.2041 16.8202 38.237 13.3791C36.2698 9.93802 33.2177 7.24324 29.5563 5.7147C25.8948 4.18617 21.8298 3.90974 17.9946 4.9285C14.1594 5.94727 10.7694 8.20399 8.35304 11.347C5.93667 14.49 4.62958 18.3427 4.63547 22.3048C4.63226 25.59 5.54232 28.8116 7.26435 31.6111L7.73425 32.3845L5.93086 39.079L12.6999 37.2786Z" fill="#0F890E"/>
<path fill-rule="evenodd" clip-rule="evenodd" d="M30.8858 25.3846C30.4465 25.0309 29.9322 24.7819 29.382 24.6567C28.8318 24.5315 28.2602 24.5332 27.7108 24.6619C26.8853 25.0042 26.3519 26.2975 25.8185 26.9441C25.706 27.0991 25.5407 27.2078 25.3537 27.2498C25.1666 27.2918 24.9706 27.2643 24.8025 27.1723C21.7803 25.9906 19.2471 23.8235 17.6143 21.0231C17.4751 20.8483 17.4092 20.6264 17.4305 20.4041C17.4518 20.1818 17.5587 19.9764 17.7286 19.8312C18.3236 19.2433 18.7604 18.515 18.9986 17.7139C19.0515 16.8302 18.8488 15.9499 18.4144 15.1781C18.0787 14.096 17.4397 13.1325 16.5729 12.4014C16.1259 12.2007 15.6302 12.1334 15.1458 12.2076C14.6613 12.2819 14.2086 12.4945 13.8425 12.8198C13.2068 13.3674 12.7022 14.0503 12.366 14.8183C12.0297 15.5862 11.8702 16.4198 11.8994 17.2574C11.9013 17.7278 11.9611 18.1962 12.0772 18.6521C12.3721 19.7474 12.8256 20.7939 13.4234 21.7584C13.8547 22.4973 14.3252 23.2125 14.8331 23.9012C16.4835 26.163 18.5581 28.0835 20.9417 29.5559C22.1379 30.3042 23.4163 30.9125 24.7517 31.369C26.1389 31.9968 27.6706 32.2378 29.184 32.0664C30.0462 31.9361 30.8632 31.5962 31.563 31.0766C32.2628 30.5571 32.824 29.8737 33.1971 29.0868C33.4164 28.6114 33.4829 28.08 33.3876 27.5654C33.159 26.513 31.7494 25.8917 30.8858 25.3846Z" fill="#0F890E"/>
</svg>
